<svg width="130" height="150" viewBox="0 0 130 150" fill="none" xmlns="http://www.w3.org/2000/svg">
    <g clip-path="url(#clip0)">
        <path d="M18.5328 66.3941H22.4421C29.5946 83.1409 45.8687 94.8486 64.8649 94.8486C83.861 94.8486 100.135 83.1409 107.288 66.3941H111.197C113.745 66.3941 115.83 64.26 115.83 61.6516V33.197C115.83 30.5887 113.745 28.4546 111.197 28.4546H107.288C100.135 11.7079 83.861 0 64.8649 0C45.8687 0 29.5946 11.7079 22.4421 28.4546H18.5328C15.9846 28.4546 13.8996 30.5887 13.8996 33.197V61.6516C13.8996 64.26 15.9846 66.3941 18.5328 66.3941ZM30.1158 40.3107C30.1158 33.7602 36.3417 28.4546 44.0155 28.4546H85.7143C93.3881 28.4546 99.6139 33.7602 99.6139 40.3107V47.4243C99.6139 63.1337 87.1622 75.8789 71.8147 75.8789H57.9151C42.5676 75.8789 30.1158 63.1337 30.1158 47.4243V40.3107ZM50.9653 61.6516L54.4402 50.9812L64.8649 47.4243L54.4402 43.8675L50.9653 33.197L47.4904 43.8675L37.0656 47.4243L47.4904 50.9812L50.9653 61.6516ZM94.8649 95.2635C86.2066 100.984 75.9267 104.333 64.8649 104.333C53.8031 104.333 43.5232 100.984 34.8649 95.2635C15.3185 97.368 0 114.115 0 134.685V137.53C0 145.385 6.22587 151.758 13.8996 151.758H37.0656V132.788C37.0656 127.542 41.2066 123.303 46.3321 123.303H83.3977C88.5232 123.303 92.6641 127.542 92.6641 132.788V151.758H115.83C123.504 151.758 129.73 145.385 129.73 137.53V134.685C129.73 114.115 114.411 97.368 94.8649 95.2635ZM78.7645 132.788C76.2162 132.788 74.1313 134.922 74.1313 137.53C74.1313 140.139 76.2162 142.273 78.7645 142.273C81.3128 142.273 83.3977 140.139 83.3977 137.53C83.3977 134.922 81.3128 132.788 78.7645 132.788ZM50.9653 132.788C48.417 132.788 46.3321 134.922 46.3321 137.53V151.758H55.5985V137.53C55.5985 134.922 53.5135 132.788 50.9653 132.788Z" fill="#2A4365" />
        <path d="M54.4713 50.9984L54.468 50.9885L54.4615 51.0083L50.6756 62.4989L46.8898 51.0083L46.8997 51.005L46.8799 50.9984L35.5218 47.168L46.8799 43.3376L46.8833 43.3474L46.8898 43.3277L50.6756 31.837L54.4615 43.3277L54.4516 43.3309L54.4713 43.3376L65.8294 47.168L54.4713 50.9984Z" fill="#F6E05E" stroke="black" stroke-width="0.03125" />
    </g>
    <defs>
        <clipPath id="clip0">
            <rect width="129.73" height="150" fill="white" />
        </clipPath>
    </defs>
</svg>
